# xmcd
#
# Track frame offsets: 
#        150
#        29800
#        72787
#        96736
#        114512
#        140967
#        160737
#        182545
#        201900
#
# Disc length: 3054 seconds
#
# Revision: 1
# Processed by: cddbd v1.5.2PL0 Copyright (c) Steve Scherf et al.
# Submitted via: ExactAudioCopy v0.99pb5
#
DISCID=890bec09
DTITLE=Helias, Mark's Open Loose - Strange Unison
DYEAR=2007
DGENRE=Jazz
TTITLE0=Graveling
TTITLE1=Blue Light Down The Line
TTITLE2=Sonic Rights
TTITLE3=CBJ
TTITLE4=Illustrate
TTITLE5=Circling
TTITLE6=Johns and Marks
TTITLE7=Irrational
TTITLE8=Silent Stutter
EXTD=YEAR: 2007
EXTT0=
EXTT1=
EXTT2=
EXTT3=
EXTT4=
EXTT5=
EXTT6=
EXTT7=
EXTT8=
PLAYORDER=
